<svg width="15" height="17" viewBox="0 0 15 17" fill="none" xmlns="http://www.w3.org/2000/svg">
<path d="M7.49966 8.50004C9.87069 8.50004 11.7929 6.59724 11.7929 4.25002C11.7929 1.9028 9.87069 0 7.49966 0C5.1286 0 3.20647 1.9028 3.20647 4.25002C3.20647 6.59724 5.1286 8.50004 7.49966 8.50004Z" fill="#EAC645"/>
<path d="M11.7932 10.2H12.0952C13.3942 10.2 14.49 11.1576 14.6512 12.4337L14.9865 15.0891C15.1145 16.1038 14.3153 17 13.2824 17H1.71753C0.684596 17 -0.114597 16.1038 0.0135119 15.0891L0.34881 12.4337C0.509948 11.1576 1.60575 10.2 2.90485 10.2H3.20679" fill="#EAC645"/>
</svg>
