<svg width="14" height="15" viewBox="0 0 14 15" fill="none" xmlns="http://www.w3.org/2000/svg">
<path d="M9.92137 7.8545C9.56238 7.8545 9.27137 8.14552 9.27137 8.5045C9.27137 8.86349 9.56238 9.1545 9.92137 9.1545V8.5045V7.8545ZM12.1681 10.2246L11.5234 10.3077V10.3077L12.1681 10.2246ZM12.4317 12.2694L13.0764 12.1863L13.0764 12.1863L12.4317 12.2694ZM0.661013 12.2694L0.0163468 12.1863L0.0163452 12.1863L0.661013 12.2694ZM0.9246 10.2246L0.279935 10.1415L0.279934 10.1415L0.9246 10.2246ZM3.17134 9.1545C3.53032 9.1545 3.82134 8.86349 3.82134 8.5045C3.82134 8.14552 3.53032 7.8545 3.17134 7.8545V8.5045V9.1545ZM6.54608 7.19548V7.84548C8.74999 7.84548 10.5711 6.10793 10.5711 3.92275H9.92111H9.27111C9.27111 5.35252 8.07004 6.54548 6.54608 6.54548V7.19548ZM9.92111 3.92275H10.5711C10.5711 1.73757 8.74999 2.44379e-05 6.54608 2.44379e-05V0.650024V1.30002C8.07004 1.30002 9.27111 2.49298 9.27111 3.92275H9.92111ZM6.54608 0.650024V2.44379e-05C4.34214 2.44379e-05 2.52108 1.73758 2.52108 3.92275H3.17108H3.82108C3.82108 2.49297 5.02211 1.30002 6.54608 1.30002V0.650024ZM3.17108 3.92275H2.52108C2.52108 6.10792 4.34214 7.84548 6.54608 7.84548V7.19548V6.54548C5.02211 6.54548 3.82108 5.35253 3.82108 3.92275H3.17108ZM9.92137 8.5045V9.1545H10.1587V8.5045V7.8545H9.92137V8.5045ZM10.1587 8.5045V9.1545C10.8685 9.1545 11.4405 9.66434 11.5234 10.3077L12.1681 10.2246L12.8127 10.1415C12.6423 8.81957 11.4913 7.8545 10.1587 7.8545V8.5045ZM12.1681 10.2246L11.5234 10.3077L11.787 12.3525L12.4317 12.2694L13.0764 12.1863L12.8127 10.1415L12.1681 10.2246ZM12.4317 12.2694L11.787 12.3524C11.8347 12.7229 11.5348 13.0909 11.092 13.0909V13.7409V14.3909C12.2733 14.3909 13.2299 13.3787 13.0764 12.1863L12.4317 12.2694ZM11.092 13.7409V13.0909H2.00059V13.7409V14.3909H11.092V13.7409ZM2.00059 13.7409V13.0909C1.55779 13.0909 1.25794 12.7229 1.30568 12.3525L0.661013 12.2694L0.0163452 12.1863C-0.137335 13.3786 0.819347 14.3909 2.00059 14.3909V13.7409ZM0.661013 12.2694L1.30568 12.3525L1.56927 10.3077L0.9246 10.2246L0.279934 10.1415L0.0163468 12.1863L0.661013 12.2694ZM0.9246 10.2246L1.56927 10.3077C1.6522 9.66435 2.2241 9.1545 2.93397 9.1545V8.5045V7.8545C1.60133 7.8545 0.450349 8.81956 0.279935 10.1415L0.9246 10.2246ZM2.93397 8.5045V9.1545H3.17134V8.5045V7.8545H2.93397V8.5045Z" fill="#A88686"/>
<path d="M9.92137 7.8545C9.56238 7.8545 9.27137 8.14552 9.27137 8.5045C9.27137 8.86349 9.56238 9.1545 9.92137 9.1545V8.5045V7.8545ZM12.1681 10.2246L11.5234 10.3077V10.3077L12.1681 10.2246ZM12.4317 12.2694L13.0764 12.1863L13.0764 12.1863L12.4317 12.2694ZM0.661013 12.2694L0.0163468 12.1863L0.0163452 12.1863L0.661013 12.2694ZM0.9246 10.2246L0.279935 10.1415L0.279934 10.1415L0.9246 10.2246ZM3.17134 9.1545C3.53032 9.1545 3.82134 8.86349 3.82134 8.5045C3.82134 8.14552 3.53032 7.8545 3.17134 7.8545V8.5045V9.1545ZM6.54608 7.19548V7.84548C8.74999 7.84548 10.5711 6.10793 10.5711 3.92275H9.92111H9.27111C9.27111 5.35252 8.07004 6.54548 6.54608 6.54548V7.19548ZM9.92111 3.92275H10.5711C10.5711 1.73757 8.74999 2.44379e-05 6.54608 2.44379e-05V0.650024V1.30002C8.07004 1.30002 9.27111 2.49298 9.27111 3.92275H9.92111ZM6.54608 0.650024V2.44379e-05C4.34214 2.44379e-05 2.52108 1.73758 2.52108 3.92275H3.17108H3.82108C3.82108 2.49297 5.02211 1.30002 6.54608 1.30002V0.650024ZM3.17108 3.92275H2.52108C2.52108 6.10792 4.34214 7.84548 6.54608 7.84548V7.19548V6.54548C5.02211 6.54548 3.82108 5.35253 3.82108 3.92275H3.17108ZM9.92137 8.5045V9.1545H10.1587V8.5045V7.8545H9.92137V8.5045ZM10.1587 8.5045V9.1545C10.8685 9.1545 11.4405 9.66434 11.5234 10.3077L12.1681 10.2246L12.8127 10.1415C12.6423 8.81957 11.4913 7.8545 10.1587 7.8545V8.5045ZM12.1681 10.2246L11.5234 10.3077L11.787 12.3525L12.4317 12.2694L13.0764 12.1863L12.8127 10.1415L12.1681 10.2246ZM12.4317 12.2694L11.787 12.3524C11.8347 12.7229 11.5348 13.0909 11.092 13.0909V13.7409V14.3909C12.2733 14.3909 13.2299 13.3787 13.0764 12.1863L12.4317 12.2694ZM11.092 13.7409V13.0909H2.00059V13.7409V14.3909H11.092V13.7409ZM2.00059 13.7409V13.0909C1.55779 13.0909 1.25794 12.7229 1.30568 12.3525L0.661013 12.2694L0.0163452 12.1863C-0.137335 13.3786 0.819347 14.3909 2.00059 14.3909V13.7409ZM0.661013 12.2694L1.30568 12.3525L1.56927 10.3077L0.9246 10.2246L0.279934 10.1415L0.0163468 12.1863L0.661013 12.2694ZM0.9246 10.2246L1.56927 10.3077C1.6522 9.66435 2.2241 9.1545 2.93397 9.1545V8.5045V7.8545C1.60133 7.8545 0.450349 8.81956 0.279935 10.1415L0.9246 10.2246ZM2.93397 8.5045V9.1545H3.17134V8.5045V7.8545H2.93397V8.5045Z" fill="black" fill-opacity="0.2"/>
</svg>
