<svg width="19" height="19" viewBox="0 0 19 19" fill="none" xmlns="http://www.w3.org/2000/svg">
<g clip-path="url(#clip0_2009_11516)">
<path d="M8.58689 0C11.2216 0 13.3574 2.12666 13.3574 4.75007C13.3574 5.27475 12.9304 5.69997 12.4034 5.69997C11.8765 5.69997 11.4494 5.27475 11.4494 4.75007C11.4494 3.17602 10.168 1.90009 8.58717 1.90009H4.77091C3.19009 1.90009 1.90865 3.17602 1.90865 4.75007V14.2499C1.90865 15.824 3.19009 17.0999 4.77091 17.0999H8.58689C10.1677 17.0999 11.4492 15.824 11.4492 14.2499C11.4492 13.7252 11.8762 13.3 12.4031 13.3C12.9301 13.3 13.3571 13.7252 13.3571 14.2499C13.3571 16.8733 11.2213 19 8.5866 19H4.77034C2.13563 19 -0.000194297 16.8733 -0.000194297 14.2499V4.75007C9.19296e-05 2.12666 2.13591 0 4.77063 0H8.58689Z" fill="#EAC645"/>
<path d="M7.63281 8.54999C7.10587 8.54999 6.67882 8.97521 6.67882 9.49989C6.67882 10.0246 7.10587 10.4498 7.63281 10.4498V8.54999Z" fill="#EAC645"/>
<path d="M15.5347 8.54996C15.4496 8.44565 15.3684 8.34447 15.2914 8.24786C15.0572 7.95374 14.8589 7.69525 14.7189 7.51028C14.6488 7.41766 14.5933 7.34299 14.5549 7.29112L14.5105 7.23099L14.4985 7.21474L14.4942 7.20904C14.4942 7.20904 14.4937 7.20847 15.2656 6.64987L14.4942 7.20904C14.1845 6.78468 14.2784 6.18989 14.7049 5.88152C15.1311 5.57315 15.7279 5.6672 16.0376 6.09156L16.0401 6.09527L16.0499 6.10866L16.0896 6.16253C16.1249 6.21012 16.1769 6.27994 16.2434 6.36744C16.3759 6.54271 16.5642 6.7881 16.7866 7.0674C17.2363 7.63198 17.8056 8.31056 18.3254 8.82812L19 9.49986L18.3254 10.1716C17.8056 10.6892 17.2363 11.3677 16.7866 11.9323C16.5642 12.2116 16.3759 12.457 16.2434 12.6323C16.1772 12.7198 16.1251 12.7896 16.0896 12.8372L16.0499 12.8911L16.0401 12.9045L16.0378 12.9076C15.7281 13.3319 15.1311 13.4266 14.7049 13.1182C14.2787 12.8098 14.184 12.2156 14.4939 11.7912L15.2659 12.3496C14.4939 11.7912 14.4939 11.7912 14.4939 11.7912L14.4985 11.785L14.5105 11.7687L14.5549 11.7086C14.5933 11.6567 14.6491 11.5823 14.7189 11.4894C14.8589 11.3042 15.0572 11.046 15.2914 10.7519C15.3684 10.6552 15.4496 10.5541 15.5347 10.4498H7.6328V8.54996H15.5347Z" fill="#EAC645"/>
</g>
<defs>
<clipPath id="clip0_2009_11516">
<rect width="19" height="19" fill="white" transform="matrix(-1 0 0 1 19 0)"/>
</clipPath>
</defs>
</svg>
