<svg width="14" height="14" viewBox="0 0 14 14" fill="none" xmlns="http://www.w3.org/2000/svg">
<g clip-path="url(#clip0_2009_11511)">
<path d="M6.32715 0C8.26852 0 9.84229 1.56701 9.84229 3.50005C9.84229 3.88666 9.52762 4.19998 9.13934 4.19998C8.75107 4.19998 8.4364 3.88666 8.4364 3.50005C8.4364 2.34023 7.49219 1.40006 6.32736 1.40006H3.51539C2.35056 1.40006 1.40635 2.34023 1.40635 3.50005V10.4999C1.40635 11.6598 2.35056 12.5999 3.51539 12.5999H6.32715C7.49197 12.5999 8.43619 11.6598 8.43619 10.4999C8.43619 10.1133 8.75086 9.80002 9.13913 9.80002C9.52741 9.80002 9.84207 10.1133 9.84207 10.4999C9.84207 12.433 8.26831 14 6.32694 14H3.51496C1.57359 14 -0.000168408 12.433 -0.000168408 10.4999V3.50005C4.24961e-05 1.56701 1.57381 0 3.51517 0H6.32715Z" fill="#A88686"/>
<path d="M6.32715 0C8.26852 0 9.84229 1.56701 9.84229 3.50005C9.84229 3.88666 9.52762 4.19998 9.13934 4.19998C8.75107 4.19998 8.4364 3.88666 8.4364 3.50005C8.4364 2.34023 7.49219 1.40006 6.32736 1.40006H3.51539C2.35056 1.40006 1.40635 2.34023 1.40635 3.50005V10.4999C1.40635 11.6598 2.35056 12.5999 3.51539 12.5999H6.32715C7.49197 12.5999 8.43619 11.6598 8.43619 10.4999C8.43619 10.1133 8.75086 9.80002 9.13913 9.80002C9.52741 9.80002 9.84207 10.1133 9.84207 10.4999C9.84207 12.433 8.26831 14 6.32694 14H3.51496C1.57359 14 -0.000168408 12.433 -0.000168408 10.4999V3.50005C4.24961e-05 1.56701 1.57381 0 3.51517 0H6.32715Z" fill="black" fill-opacity="0.2"/>
<path d="M5.62402 6.29999C5.23575 6.29999 4.92108 6.61331 4.92108 6.99991C4.92108 7.38652 5.23575 7.69984 5.62402 7.69984V6.29999Z" fill="#A88686"/>
<path d="M5.62402 6.29999C5.23575 6.29999 4.92108 6.61331 4.92108 6.99991C4.92108 7.38652 5.23575 7.69984 5.62402 7.69984V6.29999Z" fill="black" fill-opacity="0.2"/>
<path d="M11.4466 6.29997C11.384 6.22311 11.3241 6.14856 11.2673 6.07737C11.0948 5.86065 10.9486 5.67019 10.8455 5.5339C10.7938 5.46565 10.7529 5.41063 10.7247 5.37241L10.692 5.3281L10.6831 5.31613L10.68 5.31193C10.68 5.31193 10.6795 5.31151 11.2483 4.89991L10.68 5.31193C10.4518 4.99924 10.5209 4.56097 10.8352 4.33375C11.1492 4.10653 11.5889 4.17583 11.8171 4.48852L11.819 4.49125L11.8262 4.50112L11.8555 4.54081C11.8815 4.57588 11.9199 4.62733 11.9688 4.6918C12.0664 4.82095 12.2052 5.00176 12.3691 5.20756C12.7004 5.62357 13.1199 6.12357 13.5029 6.50493L14 6.9999L13.5029 7.49487C13.1199 7.87622 12.7004 8.37623 12.3691 8.79224C12.2052 8.99804 12.0664 9.17885 11.9688 9.308C11.9201 9.37247 11.8817 9.42392 11.8555 9.45899L11.8262 9.49868L11.819 9.50855L11.8174 9.51086C11.5892 9.82354 11.1492 9.89326 10.8352 9.66605C10.5211 9.43883 10.4513 9.00098 10.6797 8.68829L11.2485 9.09968C10.6797 8.68829 10.6797 8.68829 10.6797 8.68829L10.6831 8.68367L10.692 8.6717L10.7247 8.62739C10.7529 8.58917 10.7941 8.53436 10.8455 8.4659C10.9486 8.3294 11.0948 8.13914 11.2673 7.92242C11.3241 7.85124 11.384 7.77669 11.4466 7.69983H5.62417V6.29997H11.4466Z" fill="#A88686"/>
<path d="M11.4466 6.29997C11.384 6.22311 11.3241 6.14856 11.2673 6.07737C11.0948 5.86065 10.9486 5.67019 10.8455 5.5339C10.7938 5.46565 10.7529 5.41063 10.7247 5.37241L10.692 5.3281L10.6831 5.31613L10.68 5.31193C10.68 5.31193 10.6795 5.31151 11.2483 4.89991L10.68 5.31193C10.4518 4.99924 10.5209 4.56097 10.8352 4.33375C11.1492 4.10653 11.5889 4.17583 11.8171 4.48852L11.819 4.49125L11.8262 4.50112L11.8555 4.54081C11.8815 4.57588 11.9199 4.62733 11.9688 4.6918C12.0664 4.82095 12.2052 5.00176 12.3691 5.20756C12.7004 5.62357 13.1199 6.12357 13.5029 6.50493L14 6.9999L13.5029 7.49487C13.1199 7.87622 12.7004 8.37623 12.3691 8.79224C12.2052 8.99804 12.0664 9.17885 11.9688 9.308C11.9201 9.37247 11.8817 9.42392 11.8555 9.45899L11.8262 9.49868L11.819 9.50855L11.8174 9.51086C11.5892 9.82354 11.1492 9.89326 10.8352 9.66605C10.5211 9.43883 10.4513 9.00098 10.6797 8.68829L11.2485 9.09968C10.6797 8.68829 10.6797 8.68829 10.6797 8.68829L10.6831 8.68367L10.692 8.6717L10.7247 8.62739C10.7529 8.58917 10.7941 8.53436 10.8455 8.4659C10.9486 8.3294 11.0948 8.13914 11.2673 7.92242C11.3241 7.85124 11.384 7.77669 11.4466 7.69983H5.62417V6.29997H11.4466Z" fill="black" fill-opacity="0.2"/>
</g>
<defs>
<clipPath id="clip0_2009_11511">
<rect width="14" height="14" fill="white" transform="matrix(-1 0 0 1 14 0)"/>
</clipPath>
</defs>
</svg>
